{"title":"Jumanji Welcome To The Jungle 2017 New HDTS 720p Clean Audio AAC","magnet":"magnet:?xt=urn:btih:2ca93f0ef7a20fbfe2cab719a99b27d408ff8b78&dn=Jumanji+Welcome+To+The+Jungle+2017+New+HDTS+720p+Clean+Audio+AAC&tr=udp%3A%2F%2Ftracker.leechers-paradise.org%3A6969&tr=udp%3A%2F%2Fzer0day.ch%3A1337&tr=udp%3A%2F%2Fopen.demonii.com%3A1337&tr=udp%3A%2F%2Ftracker.coppersurfer.tk%3A6969&tr=udp%3A%2F%2Fexodus.desync.com%3A6969","uploader":"rumeHabo","categoryP":"video","categoryS":"hd___movies","size":"1289486000","seeders":"148","leechers":"548","description":"Jumanji Welcome To The Jungle 2017 New HDTS 720p Clean Audio AAC x264- EiE\r\n <a href=\"\nhttps://www.imdb.com/title/tt2283362/\" rel=\"nofollow\" target=\"_NEW\">\nhttps://www.imdb.com/title/tt2283362/</a>\r\n\r\n\r\nScreenshots:\r\n <a href=\"\nhttps://lensdump.com/i/lEb12\" rel=\"nofollow\" target=\"_NEW\">\nhttps://lensdump.com/i/lEb12</a>\r\n <a href=\"\nhttps://lensdump.com/i/lEcw9\" rel=\"nofollow\" target=\"_NEW\">\nhttps://lensdump.com/i/lEcw9</a>\r\n <a href=\"\nhttps://lensdump.com/i/lEwKv\" rel=\"nofollow\" target=\"_NEW\">\nhttps://lensdump.com/i/lEwKv</a>\r\n <a href=\"\nhttps://lensdump.com/i/lExfC\" rel=\"nofollow\" target=\"_NEW\">\nhttps://lensdump.com/i/lExfC</a>\r\n\r\n\r\nVideo\r\nID                                       : 1\r\nFormat                                   : AVC\r\nFormat/Info                              : Advanced Video Codec\r\nFormat settings                          : CABAC / 4 Ref Frames\r\nFormat settings, CABAC                   : Yes\r\nFormat settings, RefFrames               : 4 frames\r\nCodec ID                                 : avc1\r\nCodec ID/Info                            : Advanced Video Coding\r\nDuration                                 : 1 h 51 min\r\nBit rate                                 : 1 493 kb/s\r\nMaximum bit rate                         : 3 873 kb/s\r\nWidth                                    : 1 272 pixels\r\nHeight                                   : 536 pixels\r\nDisplay aspect ratio                     : 2.40:1\r\nFrame rate mode                          : Constant\r\nFrame rate                               : 59.940\r\nColor space                              : YUV\r\nChroma subsampling                       : 4:2:0\r\nBit depth                                : 8 bits\r\nScan type                                : Progressive\r\nBits/(Pixel*Frame)                       : 0.037\r\nStream size                              : 1.16 GiB (97%)\r\n\r\nAudio\r\nID                                       : 2\r\nFormat                                   : AAC\r\nFormat/Info                              : Advanced Audio Codec\r\nFormat profile                           : LC\r\nCodec ID                                 : mp4a-40-2\r\nDuration                                 : 1 h 51 min\r\nBit rate mode                            : Variable\r\nBit rate                                 : 48.0 kb/s\r\nMaximum bit rate                         : 72.7 kb/s\r\nChannel(s)                               : 2 channels\r\nChannel positions                        : Front: L R\r\nSampling rate                            : 44.1 kHz\r\nFrame rate                               : 43.066 FPS (1024 SPF)\r\nCompression mode                         : Lossy\r\nStream size                              : 36.9 MiB (3%)\r\nLanguage                                 : English","last_updated":"2018-01-01T12:02:07.936Z","parsed":{"xt":"urn:btih:2ca93f0ef7a20fbfe2cab719a99b27d408ff8b78","dn":"Jumanji Welcome To The Jungle 2017 New HDTS 720p Clean Audio AAC","tr":["udp://exodus.desync.com:6969","udp://open.demonii.com:1337","udp://tracker.coppersurfer.tk:6969","udp://tracker.leechers-paradise.org:6969","udp://zer0day.ch:1337"],"infoHash":"2ca93f0ef7a20fbfe2cab719a99b27d408ff8b78","infoHashBuffer":{"type":"Buffer","data":[44,169,63,14,247,162,15,191,226,202,183,25,169,155,39,212,8,255,139,120]},"name":"Jumanji Welcome To The Jungle 2017 New HDTS 720p Clean Audio AAC","announce":["udp://exodus.desync.com:6969","udp://open.demonii.com:1337","udp://tracker.coppersurfer.tk:6969","udp://tracker.leechers-paradise.org:6969","udp://zer0day.ch:1337"],"urlList":[]}}